<svg xmlns="http://www.w3.org/2000/svg" width="640" height="440" viewBox="0 0 640 440"><defs><linearGradient id="bg" x2="1" y2="1"><stop stop-color="#2b424e"/><stop offset="1" stop-color="#14252e"/></linearGradient><linearGradient id="case" x2=".8" y2="1"><stop stop-color="#eef7f1"/><stop offset="1" stop-color="#adc6c3"/></linearGradient></defs><rect width="640" height="440" fill="url(#bg)"/><circle cx="320" cy="220" r="175" fill="none" stroke="#baffea" opacity=".06"/><circle cx="320" cy="220" r="135" fill="none" stroke="#baffea" opacity=".07"/><path d="M50 360h540M80 380h480" stroke="#baffea" opacity=".06"/><ellipse cx="320" cy="363" rx="170" ry="16" fill="#07171c" opacity=".35"/><rect x="221" y="80" width="200" height="277" rx="15" fill="url(#case)"/><rect x="237" y="96" width="167" height="244" rx="7" fill="#19333b"/><rect x="249" y="113" width="144" height="40" rx="4" fill="#45636a"/><circle cx="376" cy="133" r="4" fill="#baffea"/><path d="M260 125h76m-76 10h76" stroke="#829c9c" stroke-width="3"/><rect x="249" y="164" width="144" height="40" rx="4" fill="#45636a"/><circle cx="376" cy="184" r="4" fill="#baffea"/><path d="M260 176h76m-76 10h76" stroke="#829c9c" stroke-width="3"/><rect x="249" y="215" width="144" height="40" rx="4" fill="#45636a"/><circle cx="376" cy="235" r="4" fill="#baffea"/><path d="M260 227h76m-76 10h76" stroke="#829c9c" stroke-width="3"/><rect x="249" y="266" width="144" height="40" rx="4" fill="#45636a"/><circle cx="376" cy="286" r="4" fill="#baffea"/><path d="M260 278h76m-76 10h76" stroke="#829c9c" stroke-width="3"/><text x="320" y="413" text-anchor="middle" fill="#8caaa7" font-family="Arial,sans-serif" font-size="10" letter-spacing="3">PRODUCT CONCEPT · EXAMPLE</text></svg>